#tb 0: 1/25
#tb 1: 1/48000
0,          0,          0,        1,  2764800, 0xd0b6bf48
1,          0,          0,     1024,     4096, 0x00000000
1,       1024,       1024,      896,     3584, 0x00000000
